<svg height='300px' width='300px'  fill="#000000" xmlns="http://www.w3.org/2000/svg" xmlns:xlink="http://www.w3.org/1999/xlink" xml:space="preserve" version="1.1" style="shape-rendering:geometricPrecision;text-rendering:geometricPrecision;image-rendering:optimizeQuality;" viewBox="0 0 847 847" x="0px" y="0px" fill-rule="evenodd" clip-rule="evenodd"><defs><style type="text/css">
   
    .fil0 {fill:#000000}
   
  </style></defs><g><path class="fil0" d="M344 9c53,0 106,0 159,0 25,0 46,21 46,46 0,81 0,162 0,242 81,0 162,0 243,0 25,0 46,21 46,47 0,53 0,106 0,159 0,25 -21,46 -46,46 -81,0 -162,0 -243,0 0,81 0,162 0,243 0,25 -21,46 -46,46 -53,0 -106,0 -159,0 -26,0 -47,-21 -47,-46 0,-81 0,-162 0,-243 -80,0 -161,0 -242,0 -25,0 -46,-21 -46,-46 0,-53 0,-106 0,-159 0,-26 21,-47 46,-47 81,0 162,0 242,0 0,-80 0,-161 0,-242 0,-25 21,-46 47,-46z"></path></g></svg>