<svg height='300px' width='300px'  fill="#000000" xmlns="http://www.w3.org/2000/svg" xmlns:xlink="http://www.w3.org/1999/xlink" version="1.1" x="0px" y="0px" viewBox="0 0 32 32" enable-background="new 0 0 32 32" xml:space="preserve"><g><g><path d="M24,8H8C7.7266,8,7.4648,8.1118,7.2764,8.3101C7.0879,8.5078,6.9883,8.7744,7.001,9.0474l1,21    C8.0264,30.5806,8.4658,31,9,31h14c0.5342,0,0.9736-0.4194,0.999-0.9526l1-21c0.0127-0.2729-0.0869-0.5396-0.2754-0.7373    C24.5352,8.1118,24.2734,8,24,8z M22.0469,29H9.9531L9.0488,10h13.9023L22.0469,29z"></path><path d="M27,5h-6V2c0-0.5522-0.4473-1-1-1h-8c-0.5527,0-1,0.4478-1,1v3H5C4.4473,5,4,5.4478,4,6s0.4473,1,1,1h7h8h7    c0.5527,0,1-0.4478,1-1S27.5527,5,27,5z M13,5V3h6v2H13z"></path><path d="M13,27c0.5527,0,1-0.4478,1-1V14c0-0.5522-0.4473-1-1-1s-1,0.4478-1,1v12C12,26.5522,12.4473,27,13,27z"></path><path d="M19,27c0.5527,0,1-0.4478,1-1V14c0-0.5522-0.4473-1-1-1s-1,0.4478-1,1v12C18,26.5522,18.4473,27,19,27z"></path></g></g></svg>