<svg width="470" height="330" viewBox="0 0 470 330" fill="none" xmlns="http://www.w3.org/2000/svg">
<rect width="470" height="330" fill="#C4C4C4"/>
<rect width="470" height="330" fill="url(#paint0_linear)"/>
<path d="M162.771 100.484C162.59 100.459 162.4 100.359 162.202 100.184C162.036 100.05 161.895 99.8635 161.779 99.6255C161.519 99.3675 161.419 99.0206 161.479 98.5847C161.594 97.7493 162.514 95.6369 164.24 92.2475C164.635 91.2655 165.042 90.3223 165.463 89.418C165.807 88.7992 166.002 88.3264 166.047 87.9995C166.087 87.7089 166.169 87.387 166.291 87.0338C166.455 86.6492 166.547 86.3843 166.568 86.239C167.003 86.2991 167.506 85.6096 168.074 84.1704C168.295 83.6456 168.484 83.2091 168.643 82.8609C168.807 82.4764 168.923 82.1776 168.989 81.9647C169.077 81.8657 169.172 81.7123 169.275 81.5044C169.414 81.3015 169.532 81.1142 169.63 80.9426C170.04 80.1109 170.501 79.3231 171.01 78.579C171.672 77.0046 172.415 75.3675 173.242 73.6678C174.11 71.9368 174.804 70.6629 175.323 69.8463L176.203 68.3019C176.254 68.1979 176.354 68.0082 176.503 67.7326C176.693 67.4257 176.799 67.1996 176.819 67.0543C176.839 66.909 176.799 66.7926 176.7 66.7049C176.534 66.5709 176.468 66.3768 176.503 66.1225C176.568 65.6503 177.089 65.0929 178.066 64.4503C178.577 63.9655 178.988 63.6705 179.298 63.5653C179.65 63.4288 180.099 63.3981 180.644 63.4732L182.372 63.8225C182.803 63.9189 183.963 64.0973 185.852 64.3577C186.226 64.5944 186.673 64.8412 187.193 65.0979C188.233 65.6114 188.743 65.9407 188.723 66.086C188.697 66.2676 188.734 66.4023 188.833 66.49C188.969 66.5826 189.161 66.6647 189.41 66.736C189.773 66.7861 190.279 67.2814 190.926 68.222C191.615 69.1313 192.1 70.0494 192.379 70.9762C192.553 71.5924 192.667 72.1078 192.721 72.5224C192.816 72.9057 192.829 73.3516 192.759 73.8601C192.683 74.4049 192.587 74.8358 192.469 75.1527C192.317 75.7239 192.148 76.2743 191.964 76.8042C191.78 77.334 191.605 77.6615 191.44 77.7868C190.799 78.1426 190.456 78.4839 190.41 78.8108C190.37 79.1014 189.793 79.7991 188.678 80.9038C187.6 82.0136 186.588 82.9105 185.642 83.5944C184.548 84.5539 183.289 85.3612 181.866 86.0164C177.315 87.3506 174.19 87.8637 172.493 87.5557C171.306 87.5771 170.575 87.6429 170.301 87.7531C170.031 87.827 169.792 88.0901 169.581 88.5422C169.334 88.9894 169.085 89.4547 168.834 89.9382C168.618 90.4267 168.5 90.7436 168.48 90.8889C168.207 91.2584 167.532 92.5347 166.453 94.7179C165.411 96.9061 164.686 98.5457 164.276 99.6367C164.066 100.089 163.862 100.357 163.666 100.441C163.469 100.525 163.171 100.539 162.771 100.484ZM171.856 84.5253C171.919 84.6079 172.15 84.6768 172.549 84.7319C173.022 84.797 173.649 84.8095 174.432 84.7694C175.251 84.7342 176.044 84.6215 176.81 84.431C178.178 84.1754 179.729 83.6674 181.462 82.9071C181.979 82.6453 182.628 82.235 183.408 81.6763C184.225 81.1227 185.018 80.4732 185.787 79.7279C186.055 79.3947 186.608 78.6012 187.448 77.3474C187.808 76.879 188.171 76.2627 188.535 75.4986C188.936 74.7396 189.179 74.0513 189.264 73.4338C189.304 73.1433 189.316 72.9228 189.3 72.7725C189.248 71.8031 188.878 70.8637 188.189 69.9544C187.542 69.0138 186.729 68.3281 185.752 67.8973C185.01 67.6469 184.329 67.4791 183.712 67.394C183.203 67.3239 182.651 67.3032 182.055 67.3321C181.449 67.4336 180.978 67.6277 180.642 67.9146C180.343 68.2064 179.903 68.849 179.321 69.8423C178.266 71.3253 177.262 72.9636 176.312 74.7573C175.323 77.1008 174.391 79.0266 173.517 80.5347C172.643 82.0428 172.133 82.9164 171.989 83.1557L171.959 83.3736C171.929 83.5915 171.881 83.807 171.815 84.0199C171.748 84.2328 171.762 84.4013 171.856 84.5253ZM196.639 100.545C195.62 101.219 194.476 101.468 193.204 101.293C192.296 101.168 191.454 100.83 190.679 100.279C189.94 99.7326 189.351 99.0406 188.911 98.2027C188.519 97.5565 188.264 96.8551 188.146 96.0986C188.029 95.3421 188.042 94.4371 188.187 93.3837C188.238 93.0205 188.374 92.2991 188.597 91.2194C188.891 89.8904 189.52 88.5521 190.483 87.2043C191.482 85.8616 192.641 84.7073 193.958 83.7416C195.281 82.7395 196.535 82.0981 197.721 81.8175C198.353 81.5344 198.904 81.4254 199.377 81.4905C199.631 81.5255 199.883 81.5787 200.132 81.6501C200.381 81.7215 200.649 81.7954 200.934 81.8718C201.718 82.0909 202.295 82.337 202.665 82.61C203.075 82.8517 203.399 83.1924 203.634 83.632C204.417 84.6653 204.726 85.7812 204.56 86.9799C204.295 87.8316 203.594 88.7529 202.458 89.7437C201.322 90.7345 200.017 91.4798 198.541 91.9797C197.857 92.1075 197.098 92.1138 196.262 91.9986C195.136 91.8433 194.261 91.4821 193.636 90.9147C193.324 90.7607 193.077 90.6711 192.895 90.6461C192.569 90.601 192.284 90.7839 192.043 91.1947C191.837 91.6106 191.582 92.3897 191.276 93.532C191.205 93.7812 191.137 94.142 191.071 94.6142C190.816 96.4666 191.293 97.5688 192.503 97.9207C193.314 98.2175 193.9 98.3909 194.264 98.441C194.7 98.5011 195.21 98.4234 195.795 98.2079L196.913 97.7513C197.146 97.6724 197.365 97.5546 197.572 97.3981C197.779 97.2415 197.965 97.1006 198.13 96.9753C198.213 96.9127 198.337 96.8187 198.502 96.6935C198.672 96.5319 198.815 96.4404 198.929 96.4192C199.084 96.3665 199.216 96.3477 199.325 96.3628C199.47 96.3828 199.621 96.4961 199.778 96.7028C199.939 96.8731 200.07 97.0021 200.169 97.0898C200.495 97.1349 200.536 97.381 200.289 97.8281C200.047 98.239 199.575 98.7106 198.872 99.2429C198.211 99.744 197.466 100.178 196.639 100.545ZM198.177 88.9868C198.829 88.8177 199.509 88.4488 200.217 87.8801C200.961 87.3164 201.363 86.8166 201.423 86.3808C201.483 85.9449 201.37 85.5591 201.083 85.2235C200.796 84.8878 200.362 84.6799 199.781 84.5998C199.345 84.5397 199.013 84.531 198.785 84.5736C198.256 84.6487 197.602 84.9657 196.822 85.5243C196.047 86.0467 195.36 86.5997 194.761 87.1834C194.162 87.7671 193.91 88.121 194.004 88.245C194.14 88.5969 194.826 88.858 196.061 89.0283C196.897 89.1434 197.602 89.1296 198.177 88.9868ZM216.032 69.6845C216.778 69.6394 217.315 69.6393 217.642 69.6844C218.259 69.7695 218.784 69.9899 219.216 70.3456C220.952 71.1772 222.235 72.2054 223.066 73.4303C223.896 74.6552 224.391 76.0373 224.549 77.5766C224.743 79.121 224.721 81.0242 224.483 83.2862C224.474 83.6181 224.432 84.0565 224.357 84.6014C224.292 85.0736 224.123 85.9015 223.848 87.0851C223.59 87.3457 223.413 87.6914 223.317 88.1222C223.22 88.5531 223.167 88.8049 223.157 88.8775C223.057 89.604 222.912 90.1206 222.721 90.4275C222.62 90.8947 222.405 91.3832 222.075 91.893C221.746 92.4028 221.566 92.7666 221.536 92.9846C220.072 95.8178 218.178 98.2773 215.855 100.363C213.532 102.448 211.17 103.603 208.77 103.828C208.579 103.875 208.127 103.665 207.414 103.197C206.706 102.692 206.198 102.215 205.89 101.765C205.587 101.279 205.352 100.839 205.184 100.446C205.052 100.058 205.019 99.6277 205.084 99.1555C204.936 98.6169 204.861 98.0884 204.858 97.5698C204.897 97.02 204.974 96.3273 205.089 95.4919C205.195 94.7291 205.443 94.0045 205.833 93.3181C206.224 92.6317 206.744 91.815 207.393 90.8681C207.845 90.0051 208.724 88.9974 210.03 87.845C211.378 86.6613 212.73 85.8483 214.086 85.4061C215.178 85.0015 216.088 84.8492 216.814 84.9494C217.25 85.0095 217.658 85.1397 218.037 85.3401C218.458 85.5092 218.76 85.7359 218.943 86.0202C219.131 86.2681 219.274 86.436 219.373 86.5236C219.704 86.2731 220.048 85.6544 220.406 84.6674C220.806 83.649 221.088 82.5406 221.253 81.3419C221.564 79.0899 221.408 77.4027 220.785 76.2805C219.822 74.4081 218.541 73.3617 216.943 73.1414C216.326 73.0562 215.538 73.1327 214.58 73.3707C214.137 73.0877 213.788 72.6694 213.531 72.1158C213.274 71.5622 213.251 71.0593 213.462 70.6071C214.392 70.0322 215.249 69.7246 216.032 69.6845ZM218.808 88.611C218.557 88.2803 218.196 88.0825 217.724 88.0174C216.816 87.8922 215.645 88.1935 214.212 88.9213C213.731 89.1881 213.233 89.582 212.717 90.1031C212.242 90.5929 211.94 90.9029 211.811 91.0332C211.368 91.5642 211.02 91.9419 210.767 92.1661L210.752 92.2751C210.717 92.5293 210.578 92.7323 210.335 92.8838C210.128 93.0404 209.981 93.1682 209.893 93.2671C209.389 93.9748 208.99 94.7157 208.699 95.4898C208.412 96.2275 208.246 96.7599 208.201 97.0868C208.111 97.7406 208.116 98.3706 208.218 98.9768C208.356 99.588 208.594 100.009 208.932 100.241C209.41 100.529 210.337 100.25 211.712 99.4031C213.129 98.525 214.337 97.5442 215.338 96.4607C215.601 96.1638 216.031 95.5939 216.629 94.7509C217.231 93.8716 217.674 93.2109 217.957 92.7687C218.507 91.7341 218.842 90.781 218.962 89.9092C219.047 89.2917 218.996 88.859 218.808 88.611ZM223.3 104.165C223.221 103.932 223.07 103.689 222.845 103.436C222.663 103.152 222.576 102.974 222.586 102.901C222.641 102.501 222.593 102.18 222.441 101.937C222.379 101.854 222.365 101.686 222.4 101.432C222.48 100.851 222.888 99.9074 223.623 98.6022C224.399 97.2658 225.354 95.8429 226.488 94.3335C226.736 94.1456 227.061 93.8018 227.463 93.302C227.901 92.8072 228.18 92.531 228.299 92.4734C228.319 92.3281 228.391 92.2085 228.515 92.1146C228.644 91.9843 228.781 91.9292 228.926 91.9492L228.971 91.6223C229.016 91.2954 229.723 90.5971 231.092 89.5273C232.466 88.4213 233.567 87.6847 234.395 87.3177C235.388 86.8254 236.357 86.6444 237.302 86.7746C237.955 86.8647 238.493 87.1239 238.915 87.5523C239.067 87.7953 239.795 88.6914 241.099 90.2406L242.867 92.3166L241.51 94.9056C241.048 95.8412 240.762 96.7086 240.652 97.5077C240.462 98.888 240.678 100.269 241.302 101.65C241.429 102.075 241.74 102.506 242.234 102.945C242.729 103.383 243.244 103.676 243.779 103.824C244.558 104.079 244.902 104.534 244.812 105.188C244.712 105.914 244.325 106.305 243.651 106.36C243.501 106.377 243.28 106.365 242.99 106.325C240.847 106.029 239.202 104.266 238.056 101.036C237.941 100.798 237.796 100.371 237.622 99.7549C237.484 99.1437 237.412 98.7266 237.406 98.5037C237.148 98.7642 236.828 99.0717 236.446 99.4262C236.064 99.7807 235.707 100.083 235.377 100.334C230.872 103.747 227.475 105.296 225.186 104.981C224.46 104.88 223.831 104.609 223.3 104.165ZM225.682 101.385C225.657 101.566 225.831 101.646 226.205 101.623C226.614 101.606 227.111 101.489 227.696 101.274C228.318 101.063 228.951 100.762 229.598 100.37C233.092 98.1125 235.667 96.0802 237.323 94.2727L238.792 92.4765C238.534 91.6637 238.227 91.0662 237.873 90.6842C237.523 90.2659 237.185 90.0342 236.858 89.9892C236.096 89.884 234.764 90.6813 232.864 92.3811C230.969 94.0445 229.172 96.0731 227.473 98.4667C227.061 99.0392 226.682 99.6347 226.338 100.254C225.998 100.836 225.78 101.213 225.682 101.385ZM256.991 89.5447C257.059 89.591 257.161 89.6605 257.296 89.7532C257.436 89.8096 257.535 89.8972 257.593 90.0162C257.906 90.4295 258.03 90.8723 257.965 91.3445C257.93 91.5987 257.796 91.895 257.565 92.2332C257.245 92.6703 256.91 93.0868 256.56 93.4826C255.977 94.2166 255.478 94.888 255.06 95.4967C254.68 96.1105 254.207 96.9891 253.642 98.1327C254.617 98.045 255.259 97.9485 255.57 97.8433C255.885 97.7017 256.441 97.2971 257.236 96.6295C257.98 96.0658 258.678 95.5698 259.329 95.1414C261.84 93.3038 263.181 92.3042 263.351 92.1426C263.702 91.7468 264.001 91.4549 264.249 91.2671C264.502 91.0428 264.818 90.9013 265.196 90.8424C265.695 90.9851 266.027 91.1235 266.194 91.2575C266.397 91.3966 266.806 91.7861 267.421 92.4261C267.546 92.5914 267.584 92.8557 267.533 93.2189C267.438 93.909 267.171 94.3718 266.731 94.6073C266.612 94.665 265.826 95.1303 264.374 96.0034C261.416 97.8536 258.924 99.2866 256.896 100.302C257.52 101.684 258.106 103.208 258.653 104.875C258.606 105.757 258.832 106.399 259.332 106.801C259.831 107.203 260.572 107.472 261.552 107.607C261.823 107.792 261.979 107.999 262.022 108.227C262.101 108.46 262.123 108.703 262.088 108.958C262.089 109.217 262.098 109.422 262.114 109.572C261.757 109.745 261.393 109.972 261.021 110.254C260.654 110.5 260.361 110.607 260.143 110.577C259.889 110.542 259.505 110.378 258.99 110.085C258.506 109.833 258.069 109.514 257.678 109.127C257.293 108.704 256.901 108.187 256.504 107.577C256.138 107.008 255.463 105.601 254.477 103.356C253.491 101.11 252.943 99.85 252.833 99.5757C252.683 99.8512 252.493 100.158 252.261 100.496C252.071 100.803 251.92 101.097 251.807 101.377C251.699 101.622 251.615 101.962 251.555 102.398C251.122 102.856 250.741 103.47 250.413 104.239C250.126 104.977 249.906 105.501 249.752 105.813C249.424 106.582 248.861 107.171 248.065 107.58C247.416 107.453 246.835 106.966 246.323 106.118C246.186 105.766 246.146 105.39 246.201 104.991C246.256 104.591 246.407 104.168 246.654 103.721C246.771 103.404 247.131 102.676 247.732 101.537C248.333 100.399 248.811 99.4839 249.165 98.7925C249.412 98.3453 249.813 97.5862 250.367 96.5153C250.964 95.4131 251.295 94.7555 251.361 94.5425C251.535 94.0854 251.955 93.4585 252.62 92.6618C253.522 91.4907 254.121 90.4999 254.418 89.6895C254.525 89.4453 254.739 89.2342 255.06 89.0563C255.422 88.8471 255.766 88.7651 256.093 88.8101C256.493 88.8652 256.792 89.1101 256.991 89.5447ZM274.989 92.7477C275.483 92.9268 276.058 93.3207 276.714 93.9294C276.839 94.0947 276.879 94.3408 276.834 94.6677C276.774 95.1036 276.531 95.7919 276.105 96.7325C275.849 97.2523 275.118 98.5212 273.915 100.539L272.688 102.591C272.292 103.313 271.92 104.002 271.57 104.657C271.221 105.313 270.918 105.9 270.661 106.42L269.668 108.393C269.621 108.46 269.591 108.548 269.575 108.657C269.53 108.984 269.693 109.284 270.062 109.557C270.442 109.758 270.904 109.895 271.449 109.971C272.175 110.071 272.953 110.067 273.782 109.959C274.653 109.82 275.398 109.645 276.02 109.435C276.677 109.229 277.014 109.072 277.029 108.963C277.1 108.714 277.243 108.345 277.459 107.857C277.674 107.368 277.936 106.812 278.244 106.188C278.588 105.569 278.861 105.07 279.061 104.691L280.047 102.772L282.174 98.624C282.299 97.716 282.596 96.9056 283.064 96.1929C283.569 95.4852 284.109 95.0599 284.684 94.9171L285.065 94.9697C285.574 95.0398 285.922 95.1988 286.11 95.4468C286.172 95.5295 286.298 95.6948 286.485 95.9428C286.715 96.1594 286.866 96.4024 286.94 96.6717C287.055 96.9097 287.111 97.1765 287.107 97.4721C286.978 97.6023 286.811 97.8754 286.606 98.2912C286.437 98.7121 286.265 99.0215 286.089 99.2194C285.471 99.9484 285.147 100.551 285.118 101.029C285.164 100.961 284.82 101.58 284.085 102.885C283.365 104.081 283.074 104.578 283.213 104.375L281.055 108.352L282.883 108.382C282.992 108.397 283.228 108.43 283.591 108.48C283.991 108.535 284.346 108.64 284.658 108.794C285.011 108.916 285.336 109.109 285.633 109.372C285.779 109.392 285.884 109.703 285.949 110.304C286.056 110.874 286.128 111.291 286.165 111.555C285.709 112.714 284.364 114.823 282.128 117.883C281.901 118.185 281.489 118.628 280.89 119.212C280.442 119.779 279.963 120.028 279.455 119.958C278.983 119.892 278.558 119.482 278.181 118.727C278.251 118.219 278.63 117.216 279.317 115.719C279.42 115.511 279.819 114.9 280.514 113.885C281.25 112.839 281.641 112.153 281.686 111.826L281.701 111.717C281.721 111.572 281.682 111.455 281.583 111.368C281.52 111.285 281.414 111.252 281.263 111.268C281.191 111.258 280.999 111.306 280.689 111.411C280.383 111.48 280.134 111.538 279.943 111.586C278.783 111.944 278.058 112.103 277.767 112.063C276.877 112.348 275.768 112.602 274.442 112.826L273.245 113.05C271.424 112.836 270.121 112.619 269.337 112.4C268.558 112.144 267.939 111.8 267.481 111.367C266.465 110.412 266.065 109.154 266.28 107.592L266.417 107.001C266.509 106.606 266.755 106.029 267.155 105.27C267.598 104.48 267.937 103.897 268.174 103.523C269.507 101.634 270.477 99.9725 271.082 98.5383L271.621 97.4467C272.417 95.965 272.859 95.045 272.945 94.6867C273.282 93.5858 273.963 92.9394 274.989 92.7477ZM301.822 116.879C301.066 115.923 300.582 114.598 300.372 112.903C300.329 112.675 300.345 112.289 300.42 111.744C300.496 111.199 300.548 110.818 300.578 110.6C300.285 111.115 299.818 111.55 299.177 111.906C298.226 112.626 297.306 113.128 296.415 113.413C295.029 114.073 293.936 114.348 293.137 114.238C292.41 114.137 291.775 113.643 291.231 112.753C290.814 112.289 290.506 111.839 290.307 111.405C290.144 110.975 290.103 110.47 290.183 109.888C290.238 109.489 290.353 109.061 290.527 108.603C290.785 107.269 291.144 106.005 291.605 104.81C292.102 103.62 292.919 102.123 294.056 100.318C295.534 98.1897 296.58 96.7793 297.194 96.0866C297.385 96.039 297.626 96.0352 297.917 96.0753C298.28 96.1254 298.556 96.2744 298.744 96.5224C298.968 96.7754 299.073 97.086 299.059 97.4542C299.148 97.6145 299.175 97.8218 299.14 98.0761C299.015 98.9842 298.265 100.398 296.89 102.318C295.002 105.538 293.969 107.801 293.788 109.109C293.683 109.871 293.838 110.355 294.254 110.561C294.421 110.695 294.613 110.777 294.831 110.807C295.739 110.932 296.914 110.465 298.356 109.405C299.797 108.345 301.287 106.534 302.825 103.97C303.504 102.805 303.988 101.576 304.277 100.283C304.256 100.169 304.26 100.003 304.29 99.7854C304.38 99.1316 304.78 98.65 305.488 98.3406C305.664 98.1427 305.886 98.0068 306.155 97.9329C306.43 97.8226 306.593 97.8452 306.646 98.0005L307.525 98.0662C307.639 98.0449 307.733 98.1689 307.807 98.4381C307.886 98.6711 307.975 98.8314 308.074 98.9191C308.298 99.1721 308.37 99.5892 308.29 100.17C308.125 101.369 307.345 103.131 305.951 105.455C305.061 106.813 304.433 107.874 304.069 108.638C303.746 109.371 303.516 110.098 303.379 110.819C303.189 112.2 303.558 113.417 304.486 114.47C304.814 114.774 304.995 115.077 305.027 115.377C305.06 115.678 305.023 116.08 304.917 116.583C304.799 116.9 304.543 117.143 304.15 117.311C303.798 117.447 303.422 117.488 303.023 117.433C302.551 117.368 302.15 117.183 301.822 116.879ZM321.809 108.474C322.266 108.649 322.726 108.804 323.188 108.942C323.691 109.049 324.031 109.133 324.208 109.194C324.629 109.363 325.017 109.639 325.371 110.02C325.726 110.402 325.968 110.658 326.098 110.787L326.068 111.005C326.038 111.223 325.933 111.449 325.753 111.683C325.196 112.495 324.761 113.101 324.447 113.502C324.22 113.804 323.945 114.191 323.62 114.665C323.301 115.102 322.951 115.628 322.57 116.241C322.431 116.444 322.244 116.863 322.009 117.496C321.644 118.26 321.436 118.694 321.385 118.798C320.93 119.143 320.648 119.308 320.539 119.293C320.503 119.287 320.433 119.259 320.329 119.208C320.23 119.12 320.072 119.061 319.854 119.031C319.36 118.852 319.053 118.532 318.931 118.071C318.915 117.921 318.849 117.727 318.734 117.489C318.66 117.22 318.636 116.994 318.661 116.813C318.716 116.413 318.965 115.948 319.408 115.417C319.64 115.078 319.951 114.566 320.342 113.88C320.542 113.5 320.879 112.936 321.353 112.187C321.435 112.124 321.502 112.041 321.554 111.937C321.605 111.833 321.638 111.727 321.653 111.618L321.272 111.565L319.675 111.067C319.556 111.125 319.336 111.243 319.015 111.421C318.7 111.562 318.442 111.823 318.241 112.202C318.076 112.327 317.671 112.716 317.026 113.367C316.582 113.898 316.071 114.383 315.493 114.821C314.119 115.927 313.026 116.739 312.215 117.256C311.335 117.727 310.551 117.915 309.86 117.82C309.025 117.705 308.44 117.384 308.106 116.857C307.849 116.303 307.654 115.702 307.521 115.055C307.629 114.811 307.789 114.592 308 114.399C308.217 114.17 308.452 114.073 308.707 114.108C308.852 114.128 309.008 114.205 309.175 114.339C309.247 114.349 309.315 114.395 309.377 114.478C309.44 114.561 309.521 114.646 309.62 114.733C310.894 114.354 311.99 113.783 312.909 113.022C313.865 112.265 314.959 111.176 316.191 109.754C315.599 109.488 315.022 109.112 314.459 108.627C313.933 108.147 313.573 107.672 313.379 107.201C313.127 106.611 312.983 105.907 312.948 105.088C312.913 104.269 312.885 103.802 312.864 103.688C313.054 103.381 313.365 102.739 313.795 101.762C314.021 101.201 314.254 100.715 314.496 100.304C314.738 99.8934 315.117 99.4274 315.633 98.9063C316.278 98.255 317.133 97.6882 318.199 97.2059C319.27 96.6873 320.005 96.4555 320.405 96.5106C320.68 96.6596 321.062 96.7122 321.549 96.6684C322.077 96.5932 322.446 96.6069 322.654 96.7096C322.794 96.766 322.918 96.8017 323.027 96.8167C323.141 96.7954 323.25 96.8104 323.354 96.8618C324.414 97.2299 325.227 97.6382 325.795 98.0866C326.367 98.4986 326.689 99.1167 326.761 99.9408C326.653 100.185 326.481 100.624 326.246 101.258C326.016 101.855 325.775 102.396 325.523 102.879C325.271 103.363 324.988 103.805 324.674 104.206L323.832 105.478C322.998 106.695 322.302 107.58 321.745 108.133L321.809 108.474ZM321.964 98.8909C319.13 99.3144 317.151 100.781 316.028 103.291C315.853 103.749 315.736 104.195 315.676 104.631C315.576 105.357 315.654 105.997 315.911 106.551C316.173 107.068 316.595 107.367 317.176 107.447C317.43 107.482 317.692 107.463 317.961 107.389C318.298 107.361 319.008 106.774 320.091 105.628C321.175 104.482 321.794 103.753 321.948 103.441C322.138 103.134 322.482 102.516 322.981 101.585C323.479 100.654 323.854 99.9473 324.106 99.4638C323.679 99.0718 323.284 98.8507 322.92 98.8007C322.811 98.7856 322.493 98.8157 321.964 98.8909ZM102.828 145.272C103.035 145.115 103.231 144.902 103.416 144.631C103.602 144.361 103.738 144.176 103.826 144.077C104.233 143.541 104.563 143.161 104.816 142.937C105.11 142.681 105.395 142.628 105.671 142.777C106.742 143.332 107.381 144.197 107.589 145.373C107.544 145.7 107.239 146.435 106.674 147.579C106.557 147.896 106.341 148.384 106.028 149.044C105.756 149.673 105.552 150.219 105.414 150.681C105.148 151.533 104.986 152.176 104.925 152.612C104.845 153.193 104.851 153.823 104.943 154.502C105.109 154.636 105.32 154.721 105.574 154.756C105.755 154.781 106.015 154.78 106.352 154.752C106.725 154.729 107.039 154.736 107.293 154.771C107.497 155.169 107.562 155.641 107.486 156.185C107.451 156.44 107.342 156.832 107.158 157.362C106.335 157.692 105.617 157.797 105.005 157.675C104.506 157.533 104.158 157.374 103.96 157.198C103.762 157.023 103.556 156.773 103.342 156.447C103.133 156.085 102.932 155.798 102.739 155.586C101.941 154.662 101.617 153.118 101.767 150.955C101.523 150.848 100.805 151.359 99.6123 152.49C98.0894 153.872 96.9014 154.837 96.0485 155.386C95.2319 155.939 94.4059 156.159 93.5705 156.044C93.2799 156.003 93.0463 155.953 92.8697 155.891C92.7031 155.757 92.3536 155.339 91.8212 154.636C91.5957 154.124 91.3008 153.713 90.9363 153.404C90.6869 152.259 90.551 151.5 90.5284 151.127C90.4745 150.712 90.4701 150.342 90.5152 150.015C90.5603 149.688 90.673 149.407 90.8533 149.173C90.713 149.117 90.5189 149.182 90.2709 149.37C90.0229 149.558 89.7674 149.801 89.5044 150.098C89.4168 150.196 89.1819 150.423 88.7999 150.778C88.4543 151.137 88.0823 151.419 87.684 151.623C87.1617 151.921 86.322 152.509 85.1647 153.386C84.1314 154.169 83.4131 154.68 83.0098 154.921L81.2663 154.68C81.0734 154.469 80.7503 154.128 80.2968 153.658C79.8484 153.152 79.5296 152.646 79.3404 152.138C79.1563 151.595 79.083 150.919 79.1205 150.109C79.1668 148.968 79.5293 147.815 80.2081 146.651L81.9213 143.889L82.979 142.258C84.5319 139.585 85.7624 138.311 86.6705 138.436C87.1014 138.533 87.4289 138.707 87.6531 138.96C87.8774 139.213 88.0916 139.539 88.2957 139.937C88.4999 140.336 88.6778 140.656 88.8294 140.899C88.5889 141.569 88.1512 142.194 87.5162 142.772C86.5293 143.488 85.7202 144.523 85.0891 145.88L84.379 147.004C83.8229 147.815 83.4215 148.445 83.1748 148.892C82.5411 149.73 82.1967 150.348 82.1416 150.748C82.1065 151.002 82.198 151.144 82.4159 151.174C83.0334 151.26 84.1945 150.624 85.899 149.267C86.5603 148.766 86.891 148.516 86.891 148.516C87.6763 147.921 88.3269 147.363 88.8429 146.842C89.0909 146.654 89.6069 146.133 90.3909 145.278C91.3916 144.195 92.1011 143.478 92.5194 143.129C93.2884 142.384 93.8294 141.681 94.1425 141.021C94.378 140.387 94.8696 140.177 95.6173 140.391C96.0858 140.752 96.4453 141.098 96.6958 141.428C96.9513 141.723 97.1687 142.16 97.3478 142.74C97.448 143.087 97.3259 143.57 96.9815 144.188C96.6735 144.812 96.1951 145.597 95.5463 146.544C95.1806 147.049 94.8619 147.616 94.5901 148.245C94.3547 148.879 94.2063 149.284 94.1449 149.46L93.7223 150.512L93.6152 150.886C93.5701 151.213 93.6347 151.685 93.8088 152.301C94.3424 152.19 94.7695 152.045 95.0901 151.867C95.4521 151.658 95.7595 151.441 96.0125 151.217C96.2655 150.993 96.4334 150.849 96.516 150.787C97.156 150.172 97.7916 149.722 98.4229 149.439C98.5256 149.231 98.6803 149.049 98.8869 148.893C99.0986 148.7 99.2457 148.572 99.3284 148.509C99.8557 148.175 100.199 147.834 100.358 147.485L102.828 145.272ZM121.466 140.513C121.533 140.559 121.635 140.629 121.77 140.721C121.91 140.778 122.009 140.865 122.067 140.984C122.38 141.398 122.504 141.84 122.439 142.313C122.404 142.567 122.271 142.863 122.039 143.201C121.719 143.638 121.384 144.055 121.034 144.451C120.451 145.185 119.952 145.856 119.535 146.465C119.154 147.079 118.681 147.957 118.116 149.101C119.091 149.013 119.733 148.917 120.044 148.811C120.36 148.67 120.915 148.265 121.71 147.598C122.454 147.034 123.152 146.538 123.803 146.11C126.314 144.272 127.655 143.272 127.825 143.111C128.176 142.715 128.475 142.423 128.723 142.235C128.976 142.011 129.292 141.869 129.67 141.811C130.169 141.953 130.501 142.092 130.668 142.226C130.871 142.365 131.28 142.754 131.895 143.394C132.02 143.56 132.058 143.824 132.008 144.187C131.912 144.877 131.645 145.34 131.205 145.575C131.086 145.633 130.301 146.098 128.848 146.972C125.891 148.822 123.398 150.255 121.371 151.271C121.994 152.652 122.58 154.176 123.127 155.843C123.08 156.725 123.306 157.367 123.806 157.769C124.306 158.171 125.046 158.44 126.027 158.575C126.297 158.76 126.454 158.967 126.496 159.195C126.575 159.428 126.597 159.672 126.562 159.926C126.563 160.185 126.572 160.39 126.588 160.54C126.231 160.713 125.867 160.94 125.495 161.222C125.128 161.468 124.836 161.575 124.618 161.545C124.363 161.51 123.979 161.346 123.464 161.053C122.981 160.801 122.543 160.482 122.153 160.095C121.767 159.672 121.375 159.155 120.978 158.545C120.613 157.977 119.937 156.569 118.951 154.324C117.965 152.078 117.417 150.818 117.307 150.544C117.158 150.819 116.967 151.126 116.736 151.464C116.545 151.771 116.394 152.065 116.281 152.346C116.173 152.59 116.089 152.93 116.029 153.366C115.596 153.824 115.215 154.438 114.887 155.207C114.6 155.945 114.38 156.47 114.226 156.781C113.898 157.551 113.335 158.139 112.539 158.548C111.89 158.421 111.31 157.934 110.797 157.086C110.661 156.734 110.62 156.358 110.675 155.959C110.73 155.559 110.881 155.136 111.128 154.689C111.245 154.372 111.605 153.644 112.206 152.506C112.807 151.367 113.285 150.452 113.639 149.761C113.886 149.313 114.287 148.554 114.842 147.483C115.438 146.381 115.769 145.724 115.835 145.511C116.009 145.054 116.429 144.427 117.094 143.63C117.996 142.459 118.595 141.468 118.892 140.658C118.999 140.413 119.214 140.202 119.534 140.024C119.896 139.815 120.241 139.733 120.568 139.778C120.967 139.833 121.266 140.078 121.466 140.513ZM134.944 162.803C134.508 162.742 134.173 162.622 133.939 162.442C133.705 162.262 133.379 161.939 132.962 161.474C131.939 160.038 131.5 158.793 131.645 157.739C131.68 157.485 131.723 157.306 131.774 157.202C131.918 156.963 131.99 156.714 131.988 156.454C132.024 156.2 132.046 156.037 132.056 155.964C131.931 155.799 131.871 155.698 131.876 155.662C131.886 155.589 131.93 155.539 132.007 155.513C132.09 155.45 132.154 155.385 132.201 155.318C132.419 155.348 132.519 155.158 132.501 154.748C132.469 154.448 132.702 153.832 133.2 152.902C133.704 151.935 134.285 151.071 134.945 150.311C135.435 149.712 136.129 148.975 137.027 148.099C137.961 147.229 138.772 146.582 139.46 146.158C140.437 145.516 141.295 145.06 142.035 144.792C142.776 144.524 143.576 144.357 144.436 144.29C145.188 144.209 145.691 144.186 145.945 144.221C146.199 144.256 146.407 144.359 146.569 144.529C146.772 144.668 147.014 144.923 147.296 145.295C148.217 145.866 148.811 146.522 149.079 147.262C149.388 147.971 149.445 149.034 149.25 150.451C148.925 152.812 147.609 155.24 145.303 157.735C144.303 158.818 143.394 159.637 142.577 160.191C141.766 160.708 140.711 161.247 139.412 161.808C138.574 162.248 137.811 162.55 137.122 162.714C136.474 162.847 135.748 162.876 134.944 162.803ZM140.971 157.748C141.978 156.888 142.796 156.057 143.424 155.255C144.089 154.458 144.751 153.421 145.408 152.142C145.675 151.549 145.868 150.817 145.989 149.945C146.139 148.856 146.079 148.218 145.808 148.033C145.47 147.801 145.119 147.66 144.756 147.61C143.957 147.5 143.071 147.748 142.099 148.354C140.921 149.117 139.821 150.113 138.801 151.342C137.785 152.534 136.706 154.051 135.564 155.892C135.095 156.605 134.811 157.325 134.711 158.051C134.636 158.596 134.703 159.049 134.912 159.411C135.158 159.778 135.516 159.994 135.989 160.059C137.187 160.225 138.848 159.454 140.971 157.748ZM150.12 165.283C149.877 165.435 149.465 165.471 148.884 165.391C148.344 165.279 147.983 165.211 147.802 165.186C147.594 165.083 147.318 164.804 146.973 164.35C146.67 163.864 146.456 163.538 146.33 163.373C146.366 163.119 146.466 162.929 146.631 162.804C146.833 162.683 146.975 162.592 147.057 162.529C147.186 162.399 147.438 162.323 147.811 162.3C148.22 162.283 148.487 162.227 148.611 162.133C148.772 162.044 149.17 161.84 149.806 161.52C150.442 161.201 151.006 160.871 151.497 160.532C152.029 160.161 152.471 159.778 152.821 159.382C153.951 158.168 155.17 156.708 156.479 155.001C156.891 154.428 157.424 153.65 158.078 152.667C158.773 151.652 159.179 150.987 159.297 150.67L157.683 149.892C157.62 149.809 157.531 149.649 157.416 149.411C157.301 149.173 157.235 148.979 157.219 148.829C157.239 148.683 157.261 148.52 157.286 148.338C157.347 147.902 157.425 147.599 157.523 147.427C157.657 147.261 157.872 147.179 158.168 147.183C159.324 147.12 160.272 147.084 161.014 147.076C162.124 147.081 162.961 147.048 163.526 146.978C163.977 146.929 164.475 146.942 165.019 147.017C165.964 147.147 166.795 147.428 167.513 147.861C168.027 148.154 168.439 148.655 168.749 149.363C169.162 150.124 169.321 150.849 169.226 151.539C169.191 151.793 169.138 152.045 169.067 152.294C169 152.507 168.949 152.741 168.914 152.995C168.869 153.322 168.879 153.656 168.943 153.998C168.23 155.677 167.501 157.205 166.756 158.583C166.607 158.858 166.376 159.326 166.063 159.986C165.75 160.646 165.504 161.223 165.325 161.717C165.141 162.246 164.907 162.732 164.624 163.175C164.218 163.97 163.944 164.617 163.801 165.115C163.673 165.505 163.467 165.791 163.183 165.974C162.94 166.126 162.663 166.254 162.353 166.359C162.083 166.433 161.91 166.483 161.832 166.509C161.677 166.562 161.428 166.491 161.085 166.295C160.741 166.1 160.46 165.858 160.241 165.568C160.198 165.34 160.202 165.045 160.252 164.682C160.292 164.391 160.42 164.001 160.635 163.513C161.58 161.496 162.89 158.568 164.567 154.728L165.452 152.74C165.606 152.428 165.713 152.054 165.773 151.618C165.818 151.291 165.809 150.957 165.745 150.615C165.194 150.317 164.755 150.145 164.428 150.1C164.246 150.075 164.041 150.084 163.813 150.127C163.585 150.169 163.378 150.196 163.192 150.207C162.793 150.412 162.528 150.727 162.395 151.152C161.454 152.873 160.526 154.374 159.609 155.654C158.692 156.934 157.974 157.983 157.454 158.799C157.259 159.143 156.746 159.775 155.916 160.697C155.39 161.291 155.013 161.738 154.787 162.04L154.082 162.721C153.876 162.877 153.527 163.125 153.036 163.465C152.545 163.804 152.196 164.052 151.989 164.209L150.12 165.283ZM180.884 147.372C181.056 147.47 181.331 147.619 181.711 147.819C182.095 147.983 182.397 148.21 182.616 148.499C182.7 148.696 182.852 148.939 183.071 149.228C183.326 149.523 183.484 149.859 183.543 150.237C183.492 150.6 183.276 150.959 182.894 151.314C182.554 151.637 182.34 151.848 182.252 151.947C181.787 152.364 181.421 152.739 181.153 153.072C180.885 153.405 180.666 153.653 180.495 153.814C180.196 154.106 179.869 154.468 179.513 154.9C180.059 155.235 180.441 155.417 180.659 155.447C181.1 155.471 181.557 155.645 182.031 155.969C182.509 156.257 182.907 156.46 183.224 156.578C183.775 156.876 184.374 157.495 185.022 158.436C185.711 159.345 186.111 160.067 186.222 160.6C186.512 161.454 186.624 162.118 186.559 162.59C186.534 162.771 186.496 162.914 186.444 163.018C186.29 163.33 186.188 163.668 186.138 164.031C185.963 164.229 185.658 164.557 185.225 165.015C184.833 165.442 184.451 165.797 184.079 166.079C183.707 166.361 183.247 166.612 182.698 166.832C179.987 167.976 177.512 168.338 175.275 167.919C175.13 167.899 174.943 167.91 174.715 167.953C174.524 168 174.363 167.959 174.232 167.83C173.579 167.74 173.002 167.494 172.502 167.092C172.044 166.659 171.621 166.101 171.234 165.418C170.941 164.86 170.844 164.217 170.944 163.491C171.08 162.51 171.483 161.326 172.156 159.938C172.833 158.514 173.494 157.346 174.138 156.436C174.219 156.114 174.42 155.734 174.739 155.297C175.095 154.865 175.324 154.545 175.427 154.337C175.637 153.885 176.216 153.039 177.164 151.801C178.154 150.531 178.899 149.689 179.4 149.277C179.496 148.846 179.733 148.472 180.11 148.154C180.492 147.799 180.75 147.539 180.884 147.372ZM178.639 157.612C178.525 157.633 178.336 157.662 178.072 157.7C177.808 157.737 177.59 157.837 177.42 157.999C177.291 158.129 177.207 158.339 177.167 158.63C177.157 158.703 177.048 158.817 176.842 158.974C176.676 159.099 176.124 160.152 175.185 162.132L174.553 163.489C174.507 163.556 174.476 163.645 174.461 163.753L174.411 164.524L175.003 164.661C175.438 164.721 175.957 164.718 176.558 164.653C177.159 164.588 177.628 164.542 177.965 164.514C178.93 164.499 179.994 164.165 181.157 163.511C182.321 162.857 183.087 162.13 183.457 161.329C183.56 161.121 183.621 160.945 183.641 160.8C183.716 160.255 183.589 159.83 183.261 159.526C183.162 159.438 182.964 159.263 182.668 159C182.407 158.742 182.139 158.538 181.863 158.389C181.588 158.24 181.305 158.146 181.014 158.106L180.905 158.09C180.833 158.08 180.64 157.998 180.328 157.844C180.157 157.747 179.871 157.67 179.472 157.615C179.109 157.565 178.831 157.564 178.639 157.612ZM207.219 153.89C207.648 153.727 208.063 153.673 208.463 153.728C208.971 153.798 209.384 154.022 209.703 154.399C210.062 154.745 210.209 155.154 210.144 155.626C210.134 155.698 210.073 155.875 209.96 156.156C210.134 155.698 209.645 156.427 208.493 158.341C207.341 160.255 206.718 161.279 206.626 161.414L206.603 161.578C207.112 161.648 207.416 161.856 207.516 162.203C207.658 162.519 207.675 162.929 207.569 163.432C207.232 163.46 206.906 163.544 206.59 163.686C206.274 163.827 206.026 163.886 205.844 163.861C205.735 163.846 205.601 163.883 205.44 163.971C205.28 164.06 205.172 164.175 205.115 164.315C205.023 164.451 204.818 164.996 204.501 165.952L202.98 169.739C202.872 169.984 202.715 170.184 202.508 170.341C202.301 170.497 202.123 170.584 201.973 170.6C201.832 170.544 201.554 170.413 201.138 170.207C200.764 169.971 200.509 169.806 200.374 169.713C200.243 169.584 200.113 169.455 199.983 169.326L200.028 168.999C200.098 168.491 200.261 167.977 200.518 167.457C200.929 166.625 201.387 165.448 201.893 163.927C201.618 163.778 200.884 163.732 199.691 163.79C198.504 163.811 197.856 163.814 197.747 163.799C197.514 163.878 197.07 163.872 196.417 163.782C195.363 163.637 194.631 163.444 194.22 163.202L193.871 163.32C193.753 163.637 193.594 163.985 193.394 164.365C192.839 165.436 192.524 166.244 192.449 166.789C192.306 167.287 192.176 167.695 192.058 168.012C191.935 168.365 191.788 168.9 191.615 169.616C191.438 170.628 191.023 171.089 190.369 170.999C189.97 170.944 189.554 170.739 189.122 170.383C188.888 170.203 188.583 169.864 188.207 169.368L189.657 165.293C189.811 164.981 189.983 164.542 190.172 163.976C190.397 163.415 190.607 162.963 190.803 162.62L191.635 161.013C192.246 159.802 192.788 158.822 193.262 158.073C193.262 158.073 193.791 157.054 194.849 155.016C194.993 154.777 195.324 154.119 195.843 153.043C196.403 151.936 196.731 151.297 196.829 151.125C197.03 150.746 197.348 150.586 197.784 150.646C198.37 150.69 198.84 150.903 199.195 151.285C199.59 151.635 199.776 152.031 199.753 152.472C199.738 152.581 199.694 152.76 199.623 153.009C199.557 153.222 199.498 153.381 199.446 153.485L195.659 160.014L195.599 160.449C195.729 160.578 195.976 160.668 196.339 160.718C196.63 160.758 197.073 160.764 197.67 160.735C198.302 160.711 198.691 160.709 198.836 160.729C199.168 160.738 199.664 160.769 200.322 160.823C200.981 160.877 201.638 160.949 202.291 161.039C202.8 161.109 203.07 161.165 203.101 161.206L203.941 159.545C204.767 157.845 205.583 156.496 206.387 155.496C206.438 155.392 206.538 155.203 206.687 154.927C206.841 154.615 207.019 154.269 207.219 153.89ZM213.585 173.644C213.149 173.584 212.814 173.464 212.58 173.284C212.346 173.103 212.02 172.781 211.603 172.316C210.58 170.88 210.14 169.635 210.286 168.581C210.321 168.327 210.364 168.148 210.415 168.044C210.559 167.805 210.631 167.556 210.629 167.296C210.664 167.042 210.687 166.879 210.697 166.806C210.572 166.641 210.512 166.54 210.517 166.504C210.527 166.431 210.57 166.381 210.648 166.355C210.731 166.292 210.795 166.227 210.842 166.16C211.06 166.19 211.16 166 211.142 165.59C211.11 165.29 211.343 164.674 211.841 163.744C212.344 162.777 212.926 161.913 213.586 161.153C214.076 160.554 214.77 159.817 215.668 158.941C216.602 158.071 217.413 157.424 218.101 157C219.077 156.358 219.936 155.902 220.676 155.634C221.416 155.366 222.217 155.199 223.077 155.132C223.829 155.051 224.332 155.028 224.586 155.063C224.84 155.098 225.048 155.201 225.21 155.371C225.413 155.51 225.655 155.765 225.937 156.137C226.857 156.708 227.452 157.364 227.72 158.104C228.029 158.813 228.086 159.876 227.891 161.293C227.566 163.654 226.25 166.082 223.944 168.577C222.944 169.66 222.035 170.479 221.218 171.033C220.407 171.55 219.352 172.089 218.053 172.65C217.215 173.09 216.451 173.392 215.763 173.556C215.115 173.689 214.389 173.718 213.585 173.644ZM219.612 168.59C220.619 167.73 221.437 166.899 222.065 166.097C222.73 165.3 223.392 164.263 224.049 162.984C224.316 162.391 224.509 161.659 224.63 160.787C224.78 159.698 224.72 159.06 224.449 158.875C224.111 158.643 223.76 158.502 223.397 158.452C222.598 158.342 221.712 158.59 220.74 159.196C219.562 159.959 218.462 160.955 217.441 162.184C216.426 163.376 215.347 164.893 214.205 166.734C213.736 167.447 213.452 168.167 213.352 168.893C213.277 169.438 213.344 169.891 213.553 170.253C213.798 170.62 214.157 170.836 214.63 170.901C215.828 171.067 217.489 170.296 219.612 168.59ZM241.74 178.248C241.466 178.358 241.128 178.256 240.727 177.942C240.363 177.632 240.016 177.196 239.686 176.632C239.461 176.12 239.347 175.605 239.344 175.086C239.378 174.573 239.505 173.517 239.725 171.918C239.775 171.555 239.728 171.364 239.583 171.344C239.474 171.329 239.194 171.475 238.745 171.783C238.3 172.055 237.747 172.441 237.086 172.943C236.016 173.72 235.047 174.309 234.178 174.707C233.308 175.105 232.622 175.251 232.118 175.145C231.719 175.09 231.321 174.757 230.924 174.147C230.563 173.542 230.305 172.859 230.151 172.098C230.102 171.647 230.118 171.131 230.198 170.549C230.408 169.024 230.973 167.214 231.891 165.12C232.845 163.03 233.847 161.262 234.898 159.816C235.99 158.338 236.863 157.644 237.517 157.734C238.062 157.809 238.488 158.478 238.795 159.742C238.874 159.975 238.903 160.164 238.883 160.31C238.848 160.564 238.668 160.798 238.342 161.012C237.702 161.627 236.896 162.775 235.924 164.454C234.952 166.134 234.143 167.707 233.497 169.172C232.887 170.643 232.709 171.395 232.964 171.43C233.472 171.5 234.099 171.383 234.844 171.079C235.59 170.775 236.352 170.343 237.133 169.784C237.918 169.189 238.636 168.548 239.286 167.86C239.941 167.136 240.76 166.157 241.745 164.924C243.606 162.7 244.636 161.399 244.837 161.019C245.522 160.077 245.993 159.476 246.251 159.216C246.551 158.924 246.89 158.748 247.268 158.69L248.031 158.795C248.244 158.861 248.475 159.06 248.726 159.39C248.965 159.534 249.093 159.681 249.109 159.832C249.167 159.951 249.18 160.119 249.15 160.337L248.001 162.233L247.353 163.309C247.296 163.45 247.039 163.84 246.581 164.48C245.49 166.217 244.649 167.619 244.058 168.685C243.467 169.751 242.979 170.868 242.596 172.037C242.535 172.213 242.474 172.519 242.414 172.955C242.264 174.045 242.268 174.823 242.425 175.289C242.662 175.988 242.924 176.505 243.211 176.841C243.372 177.011 243.443 177.169 243.423 177.314C243.388 177.568 243.135 177.792 242.664 177.987C242.23 178.186 241.921 178.273 241.74 178.248ZM244.538 153.927C242.54 153.652 241.349 151.951 240.966 148.826C240.933 148.526 240.924 148.321 240.939 148.212C240.975 147.958 241.085 147.695 241.27 147.425C241.363 147.29 241.523 147.201 241.751 147.158C241.979 147.115 242.163 147.122 242.303 147.179C242.792 147.394 243.125 147.662 243.303 147.983C243.522 148.272 243.638 148.64 243.651 149.086C243.725 149.355 243.744 149.617 243.709 149.871C243.874 150.819 244.211 151.328 244.72 151.398C244.829 151.413 245.111 151.378 245.567 151.293C247.178 150.886 248.417 150.353 249.285 149.696C249.285 149.696 250.145 149.093 251.866 147.886L251.928 147.839C252.084 147.787 252.216 147.768 252.325 147.783C252.579 147.818 252.753 147.898 252.847 148.022C252.999 148.265 253.08 148.479 253.091 148.666C253.103 148.853 253.096 149.037 253.071 149.218C253.046 149.4 253.026 149.545 253.011 149.654L252.941 149.756C252.984 149.984 252.742 150.394 252.216 150.988C251.695 151.546 251.135 151.987 250.535 152.311C249.769 152.761 248.533 153.275 246.824 153.854C246.55 153.964 246.244 154.033 245.907 154.06C245.575 154.052 245.119 154.007 244.538 153.927ZM281.717 162.939C282.589 163.06 283.383 163.743 284.1 164.989L283.149 166.246C280.389 165.865 278.532 165.776 277.579 165.978C277.273 166.046 276.825 166.077 276.233 166.07C275.642 166.062 275.212 166.095 274.943 166.169C274.612 166.42 274.231 167.034 273.801 168.011C273.37 168.988 273.103 169.58 273 169.788C272.8 170.168 272.453 170.804 271.96 171.699C271.502 172.598 271.143 173.326 270.881 173.882C270.958 173.596 270.742 173.955 270.233 174.959C269.761 175.967 269.471 176.593 269.363 176.837C268.943 177.742 268.732 178.194 268.732 178.194C268.117 179.701 267.491 180.891 266.852 181.766L265.443 181.516C265.224 181.226 264.861 180.769 264.355 180.144C264.399 179.558 264.654 178.649 265.119 177.418C265.627 176.156 266.073 175.199 266.459 174.549L270.695 165.972C270.793 165.801 270.879 165.443 270.954 164.898C270.933 164.784 270.937 164.618 270.967 164.4C271.022 164 271.184 163.634 271.452 163.301C271.72 162.968 271.923 162.699 272.062 162.497L272.491 162.611C272.6 162.626 272.745 162.646 272.927 162.671C273.15 162.665 273.329 162.708 273.464 162.801C273.781 162.919 274.629 162.943 276.008 162.874C277.423 162.81 278.346 162.697 278.775 162.534L280.744 162.75C281.18 162.81 281.504 162.873 281.717 162.939ZM281.503 181.842C281.424 181.609 281.273 181.366 281.049 181.113C280.866 180.829 280.779 180.651 280.789 180.578C280.844 180.178 280.796 179.857 280.645 179.614C280.582 179.531 280.568 179.363 280.603 179.109C280.683 178.528 281.091 177.584 281.826 176.279C282.603 174.943 283.558 173.52 284.691 172.01C284.939 171.823 285.264 171.479 285.666 170.979C286.104 170.484 286.383 170.208 286.502 170.15C286.522 170.005 286.594 169.885 286.718 169.792C286.847 169.661 286.984 169.606 287.13 169.626L287.175 169.299C287.22 168.972 287.927 168.274 289.296 167.204C290.67 166.098 291.77 165.362 292.598 164.995C293.592 164.502 294.56 164.321 295.505 164.452C296.159 164.542 296.697 164.801 297.119 165.229C297.27 165.472 297.998 166.368 299.302 167.918L301.07 169.994L299.714 172.583C299.252 173.518 298.965 174.386 298.855 175.185C298.665 176.565 298.882 177.946 299.506 179.327C299.632 179.752 299.943 180.183 300.438 180.622C300.932 181.06 301.447 181.353 301.982 181.501C302.761 181.756 303.105 182.211 303.015 182.865C302.915 183.591 302.528 183.982 301.854 184.037C301.704 184.054 301.484 184.042 301.193 184.002C299.05 183.706 297.405 181.943 296.259 178.713C296.144 178.475 295.999 178.048 295.825 177.432C295.687 176.821 295.615 176.404 295.609 176.181C295.351 176.441 295.031 176.749 294.649 177.103C294.267 177.458 293.911 177.76 293.58 178.011C289.075 181.424 285.678 182.973 283.39 182.658C282.663 182.557 282.034 182.286 281.503 181.842ZM283.886 179.062C283.86 179.243 284.035 179.323 284.408 179.3C284.817 179.283 285.315 179.166 285.9 178.951C286.521 178.74 287.155 178.439 287.801 178.047C291.295 175.79 293.87 173.757 295.526 171.95L296.995 170.153C296.737 169.341 296.431 168.743 296.076 168.361C295.727 167.943 295.388 167.711 295.062 167.666C294.299 167.561 292.967 168.358 291.067 170.058C289.173 171.722 287.375 173.75 285.676 176.144C285.264 176.716 284.886 177.312 284.541 177.93C284.202 178.513 283.983 178.89 283.886 179.062ZM314.862 167.62C316.559 167.928 317.813 168.767 318.624 170.137C319.34 171.383 319.623 172.551 319.473 173.641C319.303 174.876 318.455 176.462 316.93 178.398C316.006 179.455 313.76 180.848 310.191 182.577L308.934 183.237C309.295 183.842 309.616 184.867 309.898 186.312C310.216 187.762 310.313 188.942 310.187 189.85C310.157 190.068 310.086 190.317 309.973 190.598C310.254 190.71 310.731 190.739 311.405 190.684C312.11 190.67 312.553 190.676 312.735 190.701C312.86 190.866 313.032 191.093 313.252 191.383C313.507 191.677 313.695 191.925 313.815 192.127C313.931 192.365 313.976 192.574 313.951 192.756L313.928 192.919C313.903 193.101 313.808 193.255 313.643 193.38C313.514 193.51 313.356 193.581 313.169 193.592C312.983 193.603 312.671 193.579 312.235 193.519C311.763 193.454 311.252 193.402 310.702 193.363C310.152 193.324 309.647 193.366 309.186 193.487C308.882 193.815 308.567 194.216 308.243 194.69C307.914 195.199 307.677 195.574 307.533 195.813C306.859 196.942 306.167 197.938 305.455 198.802C304.744 199.667 303.781 200.478 302.566 201.236C302.039 201.57 301.519 201.85 301.007 202.076C300.494 202.301 300.111 202.396 299.857 202.361C298.603 202.595 297.504 202.647 296.56 202.517C294.852 202.282 293.466 201.462 292.402 200.056C292.185 199.212 292.035 198.692 291.951 198.495C291.862 198.335 291.567 197.924 291.066 197.263C291.101 197.008 291.242 196.658 291.488 196.211C291.699 195.758 291.954 195.386 292.253 195.095C294.07 193.457 296.463 192.344 299.432 191.754C299.509 191.727 299.664 191.675 299.897 191.596C300.167 191.522 300.41 191.5 300.628 191.53C300.737 191.545 300.838 191.485 300.931 191.35C301.018 191.251 301.104 191.17 301.186 191.107C301.264 191.081 301.368 191.132 301.498 191.261C301.612 191.24 301.752 191.167 301.917 191.041C302.114 190.958 302.316 190.967 302.524 191.07C302.555 191.111 303.159 191.028 304.335 190.82C305.542 190.653 306.374 190.527 306.83 190.442C307.033 189.507 307.169 188.786 307.239 188.277C307.46 186.679 307.299 185.565 306.756 184.935C306.443 184.522 306.186 183.968 305.986 183.274C305.827 182.549 305.695 182.031 305.589 181.721C305.861 181.092 306.305 180.69 306.921 180.516C308.164 180.095 309.695 179.326 311.515 178.207C313.371 177.093 314.97 175.833 316.311 174.427C316.832 173.869 317.125 173.354 317.19 172.882C317.321 171.938 316.724 171.3 315.4 170.97C314.056 170.784 312.169 171.45 309.739 172.965C309.439 172.998 309.252 173.009 309.179 172.999C308.598 172.919 308.23 172.369 308.074 171.348C308.197 170.995 308.367 170.703 308.584 170.474C308.805 170.209 309.125 169.901 309.544 169.552L310.38 168.723C310.612 168.644 310.946 168.505 311.381 168.306C311.82 168.07 312.177 167.898 312.452 167.787C312.762 167.682 313.099 167.655 313.463 167.705C313.608 167.725 313.831 167.718 314.131 167.686C314.437 167.617 314.681 167.595 314.862 167.62ZM304.476 194.226C304.382 194.102 304.244 194.027 304.063 194.002C303.809 193.967 303.487 194.015 303.099 194.147C302.711 194.279 302.46 194.355 302.346 194.376C302.19 194.429 301.999 194.476 301.771 194.519C301.574 194.603 301.323 194.679 301.017 194.748C299.914 194.966 298.777 195.291 297.608 195.722C296.396 196.184 295.473 196.704 294.838 197.283C294.405 197.742 293.909 198.117 293.35 198.411C293.711 199.015 294.128 199.35 294.6 199.416C294.59 199.488 294.766 199.55 295.13 199.6C295.711 199.68 296.413 199.684 297.238 199.613C298.062 199.541 298.787 199.382 299.413 199.135C300.593 198.632 301.861 197.622 303.218 196.107C303.79 195.445 304.209 194.818 304.476 194.226ZM328.854 188.426C327.835 189.1 326.691 189.349 325.419 189.174C324.511 189.049 323.67 188.71 322.894 188.159C322.155 187.613 321.566 186.921 321.126 186.083C320.734 185.437 320.479 184.736 320.361 183.979C320.244 183.223 320.257 182.318 320.403 181.265C320.453 180.901 320.589 180.18 320.812 179.1C321.106 177.771 321.735 176.433 322.698 175.085C323.697 173.742 324.856 172.588 326.174 171.622C327.496 170.62 328.75 169.979 329.937 169.698C330.568 169.415 331.12 169.306 331.592 169.371C331.846 169.406 332.098 169.459 332.347 169.531C332.596 169.602 332.864 169.676 333.149 169.753C333.933 169.972 334.51 170.218 334.88 170.491C335.29 170.732 335.614 171.073 335.849 171.513C336.632 172.546 336.941 173.662 336.776 174.861C336.51 175.712 335.809 176.634 334.673 177.624C333.537 178.615 332.232 179.361 330.756 179.86C330.072 179.988 329.313 179.995 328.477 179.879C327.351 179.724 326.476 179.363 325.851 178.795C325.539 178.641 325.292 178.552 325.111 178.527C324.784 178.482 324.499 178.665 324.258 179.075C324.052 179.491 323.797 180.27 323.491 181.413C323.42 181.662 323.352 182.023 323.287 182.495C323.031 184.347 323.508 185.45 324.718 185.801C325.529 186.098 326.116 186.272 326.479 186.322C326.915 186.382 327.425 186.304 328.01 186.089L329.128 185.632C329.361 185.553 329.581 185.435 329.787 185.279C329.994 185.122 330.18 184.981 330.345 184.856C330.428 184.793 330.552 184.699 330.717 184.574C330.888 184.413 331.03 184.321 331.144 184.3C331.299 184.247 331.431 184.228 331.54 184.244C331.685 184.264 331.836 184.377 331.993 184.584C332.154 184.754 332.285 184.883 332.384 184.971C332.711 185.016 332.751 185.262 332.504 185.709C332.262 186.12 331.79 186.591 331.087 187.124C330.426 187.625 329.682 188.059 328.854 188.426ZM330.392 176.868C331.044 176.698 331.724 176.33 332.432 175.761C333.176 175.197 333.578 174.697 333.638 174.262C333.698 173.826 333.585 173.44 333.298 173.104C333.011 172.769 332.577 172.561 331.996 172.481C331.56 172.42 331.228 172.412 331 172.454C330.472 172.529 329.817 172.846 329.037 173.405C328.262 173.927 327.575 174.48 326.976 175.064C326.377 175.648 326.125 176.002 326.219 176.126C326.355 176.478 327.041 176.739 328.276 176.909C329.112 177.024 329.817 177.01 330.392 176.868ZM362.382 190.161C362.512 190.29 362.562 190.464 362.532 190.682C362.497 190.936 362.371 191.178 362.154 191.407C361.979 191.605 361.819 191.694 361.673 191.674C360.983 191.578 360.336 191.304 359.733 190.851C359.17 190.366 358.947 189.706 359.062 188.871L359.527 185.493C359.763 183.785 359.768 182.805 359.544 182.552C359.039 182.187 358.012 182.656 356.463 183.96C354.95 185.269 353.436 186.855 351.921 188.719C351.431 189.318 351.034 189.781 350.729 190.109C350.425 190.437 350.2 190.592 350.055 190.572C349.946 190.556 349.777 190.441 349.548 190.224C348.467 189.742 347.991 189.029 348.122 188.084C348.137 187.975 348.206 187.744 348.328 187.391C348.857 186.242 349.403 184.967 349.966 183.564C350.535 182.125 350.998 180.911 351.356 179.924C351.277 179.692 351.111 179.557 350.857 179.522C350.493 179.472 350.051 179.596 349.528 179.895C348.535 180.387 347.17 181.698 345.433 183.827C343.277 186.306 341.815 187.788 341.044 188.274C340.73 188.675 340.446 188.988 340.193 189.212C339.982 189.405 339.785 189.489 339.603 189.464C339.458 189.444 339.201 189.297 338.831 189.024C337.863 188.261 337.456 187.317 337.612 186.191C337.687 185.646 338.001 184.579 338.553 182.99C339.105 181.4 339.679 179.925 340.273 178.563C340.685 177.991 341.064 177.395 341.408 176.776C341.794 176.126 341.997 175.729 342.017 175.583C342.267 174.84 342.561 174.048 342.9 173.207C343.238 172.365 343.469 171.897 343.593 171.803C343.882 171.584 344.19 171.497 344.517 171.542C345.062 171.617 345.421 171.963 345.596 172.579C345.94 173.033 346.07 173.57 345.985 174.187C345.889 174.877 345.567 175.74 345.017 176.774C344.214 178.033 343.272 179.902 342.19 182.381C343.068 181.65 343.703 181.072 344.095 180.644C345.137 179.53 346.453 178.305 348.044 176.969C349.34 175.89 350.697 175.447 352.113 175.643C353.744 176.164 354.514 177.695 354.423 180.236C354.362 180.672 354.251 181.212 354.088 181.856C353.93 182.463 353.821 182.855 353.759 183.032C353.935 182.834 354.363 182.412 355.044 181.765C355.762 181.124 356.609 180.482 357.586 179.84C358.471 179.332 359.258 179.126 359.948 179.221C360.529 179.301 361.005 179.608 361.376 180.14C362.079 180.681 362.538 181.374 362.755 182.218C362.977 183.026 363.005 184.029 362.84 185.227C362.755 185.845 362.669 186.333 362.582 186.691C362.41 187.408 362.311 187.857 362.286 188.038C362.19 188.728 362.222 189.436 362.382 190.161ZM374.083 175.674C374.727 175.836 375.179 176.047 375.44 176.305C375.742 176.531 376.063 177.02 376.404 177.77C376.327 178.056 375.297 179.894 373.312 183.284C371.969 185.505 371.285 186.706 371.26 186.888C371.255 186.924 371.508 186.7 372.019 186.215C372.53 185.731 373.21 185.232 374.058 184.72C374.967 184.031 376.234 183.428 377.86 182.912C378.357 182.796 378.79 182.744 379.158 182.758C379.532 182.735 379.775 182.714 379.889 182.692C380.725 182.807 381.385 183.121 381.869 183.632C382.395 184.111 382.746 184.659 382.92 185.275C383.094 185.892 383.151 186.418 383.091 186.854C383.162 187.678 383.158 188.38 383.078 188.961C383.023 189.361 382.911 189.771 382.742 190.192C382.356 190.842 381.854 191.532 381.235 192.261C380.621 192.953 379.957 193.473 379.244 193.818C378.665 194.257 377.866 194.683 376.846 195.098C375.827 195.513 374.921 195.776 374.128 195.889C372.92 196.056 372.062 196.104 371.554 196.034C370.936 195.949 370.39 195.614 369.916 195.031C369.822 194.907 369.735 194.728 369.656 194.495C369.619 194.231 369.548 194.073 369.444 194.022L369.474 193.804C369.529 193.404 369.823 193.149 370.357 193.037C370.69 193.305 371.129 193.477 371.674 193.552C372.546 193.672 373.507 193.546 374.558 193.172C375.65 192.768 376.524 192.203 377.179 191.479C378.913 189.905 379.904 188.487 380.152 187.226C380.197 186.899 380.194 186.658 380.141 186.502C380.093 186.311 379.934 185.993 379.662 185.548C378.258 185.799 377.163 186.221 376.378 186.816C374.553 187.971 373.284 188.851 372.572 189.456C371.9 190.03 371.008 190.999 369.895 192.363C369.213 193.009 368.655 193.302 368.219 193.242L368.228 193.577C368.153 194.122 367.836 194.411 367.276 194.445C366.502 194.153 365.966 193.876 365.669 193.613C365.414 193.318 365.326 192.88 365.406 192.299C365.446 192.009 365.497 191.775 365.558 191.599C365.661 191.391 365.743 191.198 365.805 191.022C365.871 190.809 365.935 190.614 365.996 190.437C366.104 190.193 366.247 189.824 366.426 189.331C366.647 188.806 366.831 188.406 366.98 188.13C367.87 186.513 368.371 185.564 368.483 185.284C369.485 183.386 370.279 181.923 370.865 180.893C371.488 179.868 372.018 179.109 372.456 178.614L374.083 175.674ZM390.504 178.992C390.881 178.674 391.269 178.543 391.669 178.598C392.214 178.673 392.846 179.186 393.566 180.136C393.683 180.634 393.719 181.046 393.674 181.373C393.638 181.627 393.5 181.959 393.258 182.37C392.883 182.948 392.06 184.481 390.792 186.971C390.654 187.434 390.156 188.494 389.298 190.152C388.436 191.847 387.863 193.045 387.581 193.746C387.139 194.537 386.707 195.662 386.283 197.121L386.253 197.339C386.188 197.811 385.884 198.139 385.34 198.323C384.058 197.961 383.323 197.12 383.135 195.798C383.21 195.253 383.383 194.667 383.655 194.038C383.927 193.409 384.121 192.936 384.239 192.619C384.521 191.918 385.016 190.876 385.725 189.493C386.177 188.63 386.457 188.076 386.565 187.832C386.992 187.151 387.451 186.233 387.944 185.08C388.267 184.347 388.783 183.289 389.491 181.906C389.758 181.314 390.096 180.343 390.504 178.992Z" fill="#3A2A40"/>
<path d="M16.5453 315.899L15.8873 319H15.6073C15.5279 319 15.4649 318.972 15.4183 318.916C15.3763 318.86 15.3669 318.785 15.3903 318.692L15.9853 315.899H13.8993L13.3043 318.72C13.2856 318.823 13.2459 318.895 13.1853 318.937C13.1246 318.979 13.0546 319 12.9753 319H12.6813L13.3392 315.899H12.0653C11.9859 315.899 11.9276 315.878 11.8903 315.836C11.8576 315.794 11.8459 315.719 11.8553 315.612L11.8833 315.409H13.4093L13.9903 312.686H12.2123L12.2543 312.42C12.2729 312.266 12.3779 312.189 12.5693 312.189H14.0603L14.6693 309.361C14.6833 309.272 14.7183 309.207 14.7743 309.165C14.8349 309.118 14.9073 309.095 14.9913 309.095H15.2783L14.6203 312.189H16.7063L17.3643 309.095H17.6583C17.7376 309.095 17.7983 309.121 17.8403 309.172C17.8823 309.223 17.8939 309.296 17.8753 309.389L17.2663 312.189H18.8342L18.7923 312.455C18.7829 312.534 18.7526 312.593 18.7013 312.63C18.6546 312.667 18.5823 312.686 18.4843 312.686H17.1963L16.6153 315.409H18.1973C18.2719 315.409 18.3279 315.43 18.3653 315.472C18.4026 315.514 18.4143 315.586 18.4003 315.689L18.3723 315.899H16.5453ZM13.9693 315.409H16.0553L16.6363 312.686H14.5503L13.9693 315.409ZM20.5503 312.035H21.2223V318.489H24.7503V312.035H25.4153V318.489H28.9433V312.035H29.6153V319H20.5503V312.035ZM36.2377 312.231C36.275 312.175 36.324 312.128 36.3847 312.091C36.45 312.054 36.5177 312.035 36.5877 312.035H37.0987L35.0547 314.779C34.9473 314.928 34.8283 315.057 34.6977 315.164C34.5717 315.267 34.4177 315.346 34.2357 315.402C34.455 315.449 34.644 315.53 34.8027 315.647C34.9613 315.759 35.106 315.911 35.2367 316.102L37.3157 319H36.8467C36.7253 319 36.6297 318.981 36.5597 318.944C36.4897 318.902 36.429 318.841 36.3777 318.762L34.6137 316.291C34.4783 316.095 34.315 315.948 34.1237 315.85C33.937 315.747 33.7247 315.696 33.4867 315.696H32.5837V319.007H31.9117V312.035H32.5837V315.234H33.3887C33.5847 315.234 33.769 315.187 33.9417 315.094C34.119 315.001 34.266 314.872 34.3827 314.709L36.2377 312.231ZM41.1912 311.923C41.6905 311.923 42.1362 312.009 42.5282 312.182C42.9248 312.35 43.2585 312.59 43.5292 312.903C43.7998 313.216 44.0052 313.594 44.1452 314.037C44.2898 314.476 44.3622 314.968 44.3622 315.514C44.3622 316.06 44.2898 316.552 44.1452 316.991C44.0052 317.43 43.7998 317.805 43.5292 318.118C43.2585 318.431 42.9248 318.671 42.5282 318.839C42.1362 319.007 41.6905 319.091 41.1912 319.091C40.6918 319.091 40.2438 319.007 39.8472 318.839C39.4552 318.671 39.1215 318.431 38.8462 318.118C38.5755 317.805 38.3678 317.43 38.2232 316.991C38.0832 316.552 38.0132 316.06 38.0132 315.514C38.0132 314.968 38.0832 314.476 38.2232 314.037C38.3678 313.594 38.5755 313.216 38.8462 312.903C39.1215 312.59 39.4552 312.35 39.8472 312.182C40.2438 312.009 40.6918 311.923 41.1912 311.923ZM41.1912 318.566C41.6065 318.566 41.9682 318.496 42.2762 318.356C42.5888 318.211 42.8478 318.006 43.0532 317.74C43.2632 317.474 43.4195 317.154 43.5222 316.781C43.6248 316.403 43.6762 315.981 43.6762 315.514C43.6762 315.052 43.6248 314.632 43.5222 314.254C43.4195 313.876 43.2632 313.554 43.0532 313.288C42.8478 313.017 42.5888 312.81 42.2762 312.665C41.9682 312.52 41.6065 312.448 41.1912 312.448C40.7758 312.448 40.4118 312.52 40.0992 312.665C39.7912 312.81 39.5322 313.017 39.3222 313.288C39.1168 313.554 38.9605 313.876 38.8532 314.254C38.7505 314.632 38.6992 315.052 38.6992 315.514C38.6992 315.981 38.7505 316.403 38.8532 316.781C38.9605 317.154 39.1168 317.474 39.3222 317.74C39.5322 318.006 39.7912 318.211 40.0992 318.356C40.4118 318.496 40.7758 318.566 41.1912 318.566ZM51.6707 312.035V319H50.9987V312.567H48.1777C48.131 313.486 48.054 314.287 47.9467 314.968C47.8394 315.645 47.7087 316.226 47.5547 316.711C47.4054 317.192 47.2374 317.586 47.0507 317.894C46.8687 318.202 46.675 318.445 46.4697 318.622C46.269 318.799 46.0614 318.921 45.8467 318.986C45.6367 319.051 45.4314 319.084 45.2307 319.084C45.1187 319.084 45.0207 319.075 44.9367 319.056C44.8527 319.037 44.8107 319.009 44.8107 318.972V318.545H45.1187C45.2867 318.545 45.457 318.512 45.6297 318.447C45.807 318.377 45.982 318.253 46.1547 318.076C46.3274 317.899 46.493 317.656 46.6517 317.348C46.8104 317.04 46.9527 316.646 47.0787 316.165C47.2094 315.68 47.3214 315.099 47.4147 314.422C47.5127 313.745 47.5827 312.95 47.6247 312.035H51.6707ZM58.2484 319C58.1084 319 58.0221 318.935 57.9894 318.804L57.8914 317.915C57.7001 318.102 57.5087 318.27 57.3174 318.419C57.1307 318.568 56.9347 318.694 56.7294 318.797C56.5241 318.9 56.3024 318.977 56.0644 319.028C55.8264 319.084 55.5651 319.112 55.2804 319.112C55.0424 319.112 54.8114 319.077 54.5874 319.007C54.3634 318.937 54.1627 318.83 53.9854 318.685C53.8127 318.54 53.6727 318.356 53.5654 318.132C53.4627 317.903 53.4114 317.63 53.4114 317.313C53.4114 317.019 53.4954 316.746 53.6634 316.494C53.8314 316.242 54.0951 316.023 54.4544 315.836C54.8137 315.649 55.2734 315.5 55.8334 315.388C56.3981 315.276 57.0747 315.211 57.8634 315.192V314.464C57.8634 313.82 57.7234 313.325 57.4434 312.98C57.1681 312.63 56.7574 312.455 56.2114 312.455C55.8754 312.455 55.5884 312.502 55.3504 312.595C55.1171 312.688 54.9187 312.791 54.7554 312.903C54.5921 313.015 54.4591 313.118 54.3564 313.211C54.2537 313.304 54.1674 313.351 54.0974 313.351C54.0461 313.351 54.0041 313.339 53.9714 313.316C53.9387 313.293 53.9107 313.262 53.8874 313.225L53.7684 313.022C54.1324 312.658 54.5151 312.383 54.9164 312.196C55.3177 312.009 55.7727 311.916 56.2814 311.916C56.6547 311.916 56.9814 311.977 57.2614 312.098C57.5414 312.215 57.7724 312.385 57.9544 312.609C58.1411 312.828 58.2811 313.097 58.3744 313.414C58.4677 313.727 58.5144 314.077 58.5144 314.464V319H58.2484ZM55.4484 318.629C55.7191 318.629 55.9664 318.601 56.1904 318.545C56.4191 318.484 56.6291 318.403 56.8204 318.3C57.0164 318.193 57.1984 318.067 57.3664 317.922C57.5344 317.777 57.7001 317.621 57.8634 317.453V315.64C57.2007 315.659 56.6291 315.71 56.1484 315.794C55.6677 315.873 55.2711 315.983 54.9584 316.123C54.6504 316.263 54.4217 316.431 54.2724 316.627C54.1277 316.818 54.0554 317.038 54.0554 317.285C54.0554 317.518 54.0927 317.721 54.1674 317.894C54.2467 318.062 54.3494 318.202 54.4754 318.314C54.6061 318.421 54.7554 318.501 54.9234 318.552C55.0914 318.603 55.2664 318.629 55.4484 318.629ZM61.4667 318.482H63.7417V310.446C63.7417 310.287 63.7487 310.119 63.7627 309.942L61.5787 311.881C61.5133 311.937 61.448 311.958 61.3827 311.944C61.3173 311.93 61.266 311.902 61.2287 311.86L61.0257 311.58L63.8887 309.053H64.4137V318.482H66.5767V319H61.4667V318.482Z" fill="black"/>
<defs>
<linearGradient id="paint0_linear" x1="508" y1="-1.83027e-05" x2="-3.29576e-05" y2="330" gradientUnits="userSpaceOnUse">
<stop stop-color="white"/>
<stop offset="0.661225" stop-color="white" stop-opacity="0.1"/>
<stop offset="1" stop-color="white" stop-opacity="0"/>
</linearGradient>
</defs>
</svg>
